#N canvas 686 241 450 300 10;
#X obj 65 58 r foo;
#X obj 62 100 print foo;
#X obj 244 59 adc~;
#X obj 238 102 env~ 8192;
#X floatatom 236 140 5 0 0 0 - - -;
#X obj 155 234 dac~;
#X obj 155 191 osc~ 440;
#X obj 287 204 stdout;
#X msg 307 153 a b c;
#X connect 0 0 1 0;
#X connect 2 0 3 0;
#X connect 3 0 4 0;
#X connect 6 0 5 0;
#X connect 8 0 7 0;
