#N canvas 1074 443 450 300 10;
#X obj 97 64 loadbang;
#X obj 112 134 print;
#X obj 188 73 osc~ 400;
#X obj 179 104 dac~;
#X obj 97 107 f 0;
#X obj 128 107 + 1;
#X obj 46 136 noteout;
#X obj 97 86 metro 1000;
#X text 88 12 Pd instance #2;
#X connect 0 0 7 0;
#X connect 2 0 3 0;
#X connect 2 0 3 1;
#X connect 4 0 1 0;
#X connect 4 0 5 0;
#X connect 4 0 6 0;
#X connect 5 0 4 1;
#X connect 7 0 4 0;
