#N canvas 346 381 450 300 10;
#X obj 97 64 loadbang;
#X obj 119 133 print;
#X obj 179 104 dac~;
#X obj 143 107 + 1;
#X obj 46 132 noteout;
#X obj 97 86 metro 1000;
#X obj 188 73 osc~ 500;
#X text 86 14 Pd instance #1;
#X obj 97 107 f 10;
#X connect 0 0 5 0;
#X connect 3 0 8 1;
#X connect 5 0 8 0;
#X connect 6 0 2 0;
#X connect 6 0 2 1;
#X connect 8 0 1 0;
#X connect 8 0 3 0;
#X connect 8 0 4 0;
