#N canvas 317 280 450 300 12;
#X obj 63 133 osc~;
#X obj 51 266 dac~;
#X obj 14 9 r x;
#X obj 14 63 * 127;
#X obj 14 87 mtof;
#X obj 213 71 line~;
#X obj 63 157 *~;
#X obj 213 22 r trigger;
#X obj 142 80 osc~;
#X obj 142 8 r x;
#X obj 142 32 * 127;
#X obj 142 56 mtof;
#X obj 63 181 *~;
#X msg 213 47 1 \, 0 200;
#X obj 160 166 delread~ bob;
#X obj 100 211 +~;
#X obj 129 246 delwrite~ bob 1000;
#X obj 218 111 loadbang;
#X obj 218 135 140;
#X obj 160 190 *~ 0.5;
#X obj 14 36 + 48;
#X connect 0 0 6 0;
#X connect 2 0 20 0;
#X connect 3 0 4 0;
#X connect 4 0 0 0;
#X connect 5 0 12 1;
#X connect 6 0 12 0;
#X connect 7 0 13 0;
#X connect 8 0 6 1;
#X connect 9 0 10 0;
#X connect 10 0 11 0;
#X connect 11 0 8 0;
#X connect 12 0 15 0;
#X connect 13 0 5 0;
#X connect 14 0 19 0;
#X connect 15 0 16 0;
#X connect 15 0 1 0;
#X connect 15 0 1 1;
#X connect 17 0 18 0;
#X connect 18 0 14 0;
#X connect 19 0 15 1;
#X connect 20 0 3 0;
