#N canvas 3 61 450 384 10;
#X declare -path Gem -lib Gem;
#X obj 47 45 loadbang;
#X obj 47 91 gemwin;
#X obj 47 137 gemhead;
#X msg 47 68 dimen 640 480 \, create \, 1 \, lighting 1;
#X obj 128 16 declare -path Gem -lib Gem;
#X obj 47 189 f;
#X obj 89 187 + 1;
#X obj 89 210 mod 360;
#X obj 47 219 / 360;
#X obj 85 241 swap 1;
#X obj 85 264 -;
#X obj 47 163 bang;
#X obj 50 292 pack f f 0.5;
#X msg 50 315 color \$1 \$2 \$3;
#X obj 46 250 t f f;
#X connect 0 0 3 0;
#X connect 2 0 11 0;
#X connect 3 0 1 0;
#X connect 5 0 6 0;
#X connect 5 0 8 0;
#X connect 6 0 7 0;
#X connect 7 0 5 1;
#X connect 8 0 14 0;
#X connect 9 0 10 0;
#X connect 9 1 10 1;
#X connect 10 0 12 1;
#X connect 11 0 5 0;
#X connect 12 0 13 0;
#X connect 13 0 1 0;
#X connect 14 0 12 0;
#X connect 14 1 9 0;
