#N canvas 3 61 590 413 10;
#X declare -path Gem -lib Gem;
#X obj 430 260 loadbang;
#X obj 306 34 gemhead;
#X obj 323 112 f;
#X obj 365 108 + 1;
#X obj 365 131 mod 360;
#X obj 323 140 / 360;
#X obj 324 181 swap 1;
#X obj 324 204 -;
#X obj 57 35 declare -path Gem -lib Gem;
#X obj 322 326 gemwin;
#X obj 322 237 pack f f;
#X msg 322 260 color \$1 \$2 1;
#X obj 306 58 t a b a;
#X obj 370 79 world_light;
#X msg 343 296 dimen 500 500 \, create \, 1 \, lighting 1;
#X obj 84 245 rotateXYZ;
#X obj 84 268 scale 1.5;
#X obj 84 291 colorRGB;
#X obj 84 314 cube;
#X obj 322 158 t f f;
#X connect 0 0 14 0;
#X connect 1 0 12 0;
#X connect 2 0 3 0;
#X connect 2 0 5 0;
#X connect 2 0 15 1;
#X connect 2 0 15 3;
#X connect 3 0 4 0;
#X connect 4 0 2 1;
#X connect 5 0 17 2;
#X connect 5 0 19 0;
#X connect 6 0 7 0;
#X connect 6 1 7 1;
#X connect 7 0 10 0;
#X connect 7 0 17 3;
#X connect 7 0 17 1;
#X connect 10 0 11 0;
#X connect 11 0 9 0;
#X connect 12 0 15 0;
#X connect 12 1 2 0;
#X connect 12 2 13 0;
#X connect 14 0 9 0;
#X connect 15 0 16 0;
#X connect 16 0 17 0;
#X connect 17 0 18 0;
#X connect 19 0 6 0;
#X connect 19 1 10 1;
