#N canvas 128 522 535 471 10;
#X obj 18 16 r spam;
#X obj 18 37 s eggs;
#X obj 19 72 notein;
#X obj 16 96 noteout;
#X obj 73 75 ctlin;
#X obj 71 95 ctlout;
#X obj 122 75 pgmin;
#X obj 119 96 pgmout;
#X obj 167 34 bendin;
#X obj 167 96 bendout;
#X obj 222 76 touchin;
#X obj 218 96 touchout;
#X obj 278 75 polytouchin;
#X obj 275 95 polytouchout;
#X obj 91 18 r foo;
#X obj 91 39 print;
#X obj 160 57 - 8192;
#N canvas 0 50 450 300 (subpatch) 0;
#X array array1 128 float 2;
#X coords 0 1 127 -1 200 140 1;
#X restore 16 153 graph;
#X obj 245 172 adc~;
#X obj 260 201 *~ -3;
#X obj 247 231 dac~ 1 2 3;
#X obj 304 170 osc~ 440;
#X obj 301 328 s foo;
#X msg 402 216 hello;
#X obj 451 161 metro 1000;
#X obj 464 102 loadbang;
#X obj 97 340 midiout;
#X obj 97 315 midiin;
#X connect 0 0 1 0;
#X connect 2 0 3 0;
#X connect 2 1 3 1;
#X connect 2 2 3 2;
#X connect 4 0 5 0;
#X connect 4 1 5 1;
#X connect 4 2 5 2;
#X connect 6 0 7 0;
#X connect 6 1 7 1;
#X connect 8 0 16 0;
#X connect 8 1 9 1;
#X connect 10 0 11 0;
#X connect 10 1 11 1;
#X connect 12 0 13 0;
#X connect 12 1 13 1;
#X connect 12 2 13 2;
#X connect 14 0 15 0;
#X connect 16 0 9 0;
#X connect 18 0 19 0;
#X connect 18 0 20 0;
#X connect 19 0 20 1;
#X connect 21 0 20 2;
#X connect 23 0 22 0;
#X connect 24 0 23 0;
#X connect 25 0 24 0;
#X connect 27 0 26 0;
#X connect 27 1 26 1;
