#N canvas 69 394 386 295 10;
#X obj 67 28 loadbang;
#X obj 67 67 random 1e+06;
#X obj 67 88 / 1e+06;
#X obj 67 130 delay;
#X obj 67 109 t f f, f 11;
#X obj 130 130 print;
#X obj 67 151 i;
#X obj 67 172 + 1;
#X obj 67 193 moses 10;
#X obj 67 214 t b f;
#X obj 24 107 b;
#X obj 40 44 bng 15 250 50 0 empty empty empty 17 7 0 10 #fcfcfc #000000
#000000;
#X obj 94 237 s TestChannel;
#X obj 274 99 print;
#X obj 274 75 f 0;
#X obj 305 75 + 1;
#X obj 274 32 bang~;
#X obj 228 167 noteout;
#X obj 228 131 makenote 64 1;
#X obj 228 99 + 60;
#X connect 0 0 1 0;
#X connect 1 0 2 0;
#X connect 2 0 4 0;
#X connect 3 0 6 0;
#X connect 4 0 3 0;
#X connect 4 1 5 0;
#X connect 6 0 7 0;
#X connect 7 0 8 0;
#X connect 8 0 9 0;
#X connect 9 0 10 0;
#X connect 9 1 6 1;
#X connect 9 1 12 0;
#X connect 10 0 1 0;
#X connect 11 0 1 0;
#X connect 14 0 13 0;
#X connect 14 0 15 0;
#X connect 14 0 19 0;
#X connect 15 0 14 1;
#X connect 16 0 14 0;
#X connect 18 0 17 0;
#X connect 18 1 17 1;
#X connect 19 0 18 0;
