#N canvas 410 294 450 300 10;
#X obj 97 64 loadbang;
#X obj 97 86 metro 500;
#X obj 97 131 print;
#X obj 178 150 dac~;
#X obj 97 107 f 0;
#X obj 128 107 + 1;
#X obj 46 132 noteout;
#X obj 186 27 r note;
#X obj 186 50 mtof;
#X obj 187 81 osc~ 400;
#X obj 187 119 *~;
#X obj 270 31 r db;
#X obj 270 54 dbtorms;
#X connect 0 0 1 0;
#X connect 1 0 4 0;
#X connect 4 0 2 0;
#X connect 4 0 5 0;
#X connect 4 0 6 0;
#X connect 5 0 4 1;
#X connect 7 0 8 0;
#X connect 8 0 9 0;
#X connect 9 0 10 0;
#X connect 10 0 3 0;
#X connect 10 0 3 1;
#X connect 11 0 12 0;
#X connect 12 0 10 1;
