#N canvas 0 0 450 300 16;
#X obj 40 230 dac~;
#X obj 40 110 osc~ 400;
#X obj 40 80 +~ 400;
#X obj 40 20 osc~ 1;
#X obj 40 50 *~ 150;
#X obj 140 140 *~;
#X obj 260 20 r tone;
#X obj 140 20 phasor~ 200;
#X obj 140 50 -~ 0.5;
#X obj 260 80 vline~;
#X msg 260 50 1 50 \, 0 500 50;
#X obj 260 140 loadbang;
#X obj 260 170 metro 500;
#X obj 260 200 f;
#X obj 300 200 + 1;
#X obj 260 230 print;
#X obj 40 200 *~ 0.05;
#X obj 140 80 *~ 3;
#X connect 1 0 16 0;
#X connect 2 0 1 0;
#X connect 3 0 4 0;
#X connect 4 0 2 0;
#X connect 5 0 16 0;
#X connect 6 0 10 0;
#X connect 7 0 8 0;
#X connect 8 0 17 0;
#X connect 9 0 5 1;
#X connect 10 0 9 0;
#X connect 11 0 12 0;
#X connect 12 0 13 0;
#X connect 13 0 14 0;
#X connect 13 0 15 0;
#X connect 14 0 13 1;
#X connect 16 0 0 0;
#X connect 16 0 0 1;
#X connect 17 0 5 0;
