#N canvas 154 96 350 389 10;
#X obj 196 115 loadbang;
#X obj 196 135 tgl 15 0 empty empty empty 17 7 0 10 -262144 -1 -1 1
1;
#X obj 196 192 tgl 15 0 empty empty empty 17 7 0 10 -262144 -1 -1 0
1;
#X obj 196 174 bng 15 250 50 0 empty empty empty 17 7 0 10 -262144
-1 -1;
#X obj 196 153 metro 1000;
#X obj 100 277 dac~;
#X obj 100 175 *~ 0.75;
#X obj 100 153 osc~ 440;
#X obj 100 218 *~;
#X obj 100 246 freeverb~;
#X connect 0 0 1 0;
#X connect 1 0 4 0;
#X connect 2 0 8 1;
#X connect 3 0 2 0;
#X connect 4 0 3 0;
#X connect 6 0 8 0;
#X connect 7 0 6 0;
#X connect 8 0 9 0;
#X connect 8 0 9 1;
#X connect 9 0 5 0;
#X connect 9 1 5 1;
