#N canvas 405 289 450 300 10;
#X obj 97 131 print;
#X obj 186 106 dac~;
#X obj 97 107 f 0;
#X obj 128 107 + 1;
#X obj 185 41 r \$0-frequency;
#X obj 188 73 osc~;
#X obj 279 162 print \$0-frequency;
#X obj 291 78 loadbang;
#X obj 97 64 bang~;
#X msg 291 100 loadbang;
#X connect 2 0 0 0;
#X connect 2 0 3 0;
#X connect 3 0 2 1;
#X connect 4 0 5 0;
#X connect 4 0 6 0;
#X connect 5 0 1 0;
#X connect 5 0 1 1;
#X connect 7 0 9 0;
#X connect 8 0 2 0;
#X connect 9 0 6 0;
