#N canvas 406 290 450 300 10;
#X obj 97 64 loadbang;
#X obj 97 131 print;
#X obj 186 106 dac~;
#X obj 97 107 f 0;
#X obj 128 107 + 1;
#X obj 97 86 metro 2;
#X obj 185 41 r \$0-frequency;
#X obj 188 73 osc~;
#X obj 248 127 print \$0-frequency;
#X obj 248 97 loadbang;
#X connect 0 0 5 0;
#X connect 3 0 1 0;
#X connect 3 0 4 0;
#X connect 4 0 3 1;
#X connect 5 0 3 0;
#X connect 6 0 7 0;
#X connect 6 0 8 0;
#X connect 7 0 2 0;
#X connect 7 0 2 1;
#X connect 9 0 8 0;
