#N canvas 600 274 450 300 10;
#X obj 61 46 loadbang;
#X obj 177 210 print;
#X obj 188 73 osc~ 400;
#X obj 187 106 dac~;
#X obj 61 89 f 0;
#X obj 92 89 + 1;
#X obj 52 210 noteout;
#X obj 61 68 metro 1000;
#X floatatom 177 184 5 0 0 0 - - -, f 5;
#X obj 52 185 pack 0 64;
#X floatatom 52 160 5 0 0 0 - - -, f 5;
#X floatatom 62 116 5 0 0 0 - - -, f 5;
#X connect 0 0 7 0;
#X connect 2 0 3 0;
#X connect 2 0 3 1;
#X connect 4 0 5 0;
#X connect 4 0 11 0;
#X connect 5 0 4 1;
#X connect 7 0 4 0;
#X connect 8 0 1 0;
#X connect 9 0 6 0;
#X connect 10 0 9 0;
