#N canvas 703 354 675 427 12;
#X obj 25 199 dac~;
#X obj 24 124 osc~ 440;
#X obj 25 160 *~ 0.1;
#X obj 24 86 random 2000;
#X floatatom 161 97 5 0 0 0 - - -;
#X obj 27 41 r param;
#X msg 230 24 \; param bang;
#X obj 204 155 print;
#X connect 1 0 2 0;
#X connect 2 0 0 0;
#X connect 2 0 0 1;
#X connect 3 0 1 0;
#X connect 5 0 3 0;
#X connect 5 0 4 0;
#X connect 5 0 7 0;
