#N canvas 404 288 450 300 10;
#X obj 11 93 print \$0-frequency;
#X obj 11 19 loadbang;
#X msg 11 41 loadbang;
#X obj 163 58 sig~ 1;
#X obj 163 80 rpole~ 1;
#X obj 163 102 -~ 1;
#X obj 213 24 bang~;
#X msg 213 58 clear;
#X obj 163 144 dac~;
#X obj 184 124 *~ -1;
#X obj 66 18 r value;
#X obj 230 121 f 0;
#X obj 261 121 + 1;
#X obj 230 145 s \$0-counter;
#X connect 1 0 2 0;
#X connect 2 0 0 0;
#X connect 3 0 4 0;
#X connect 4 0 5 0;
#X connect 5 0 8 0;
#X connect 5 0 9 0;
#X connect 6 0 7 0;
#X connect 6 0 11 0;
#X connect 7 0 4 0;
#X connect 9 0 8 1;
#X connect 10 0 0 0;
#X connect 11 0 12 0;
#X connect 11 0 13 0;
#X connect 12 0 11 1;
