#N canvas 755 249 402 199 10;
#X obj 15 28 loadbang;
#X obj 114 59 sig~ 1;
#X obj 114 90 rpole~ 1;
#X obj 114 112 -~ 1;
#X obj 242 28 bang~;
#X msg 181 59 clear;
#X obj 114 154 dac~;
#X obj 135 133 *~ -1;
#X obj 242 59 f 0;
#X obj 273 59 + 1;
#X obj 242 90 print;
#X obj 294 154 noteout;
#X obj 294 124 makenote 64 1;
#X obj 294 90 + 60;
#X obj 15 59 f \$0;
#X msg 15 90 loadbang \$1;
#X obj 15 126 print;
#X connect 0 0 14 0;
#X connect 1 0 2 0;
#X connect 2 0 3 0;
#X connect 3 0 6 0;
#X connect 3 0 7 0;
#X connect 4 0 5 0;
#X connect 4 0 8 0;
#X connect 5 0 2 0;
#X connect 7 0 6 1;
#X connect 8 0 9 0;
#X connect 8 0 10 0;
#X connect 8 0 13 0;
#X connect 9 0 8 1;
#X connect 12 0 11 0;
#X connect 12 1 11 1;
#X connect 13 0 12 0;
#X connect 14 0 15 0;
#X connect 15 0 16 0;
