#N canvas 81 221 450 300 10;
#X obj 218 103 *~ 2;
#X obj 217 77 adc~ 1;
#X obj 250 103 osc~ 440;
#X obj 218 127 dac~;
#X obj 119 104 loadbang;
#X obj 105 130 print;
#X obj 145 130 f 63;
#X obj 145 151 noteout 7;
#X obj 74 102 r spam;
#X obj 41 130 s eggs;
#X connect 0 0 3 0;
#X connect 1 0 0 0;
#X connect 2 0 3 1;
#X connect 4 0 5 0;
#X connect 4 0 6 0;
#X connect 6 0 7 0;
#X connect 8 0 5 0;
#X connect 8 0 9 0;
