#N canvas 575 346 411 304 12;
#X obj 25 199 dac~;
#X obj 24 124 osc~ 440;
#X obj 25 160 *~ 0.1;
#X obj 24 86 random 2000;
#X obj 24 54 metro 700;
#X obj 24 23 loadbang;
#X connect 1 0 2 0;
#X connect 2 0 0 0;
#X connect 2 0 0 1;
#X connect 3 0 1 0;
#X connect 4 0 3 0;
#X connect 5 0 4 0;
