#N canvas 1032 199 843 810 16;
#X obj 37 162 loadbang;
#X obj 353 537 dac~;
#X obj 52 262 f 0;
#X obj 128 262 + 1;
#X obj 44 210 metro 1000;
#X obj 491 182 vsl 15 128 0.01 4 1 0 empty huldra huldra 0 -9 0 10
-260097 -1 -1 0 1;
#X obj 206 213 hsl 128 15 100 1270 1 0 empty empty empty -2 -8 0 10
-262144 -1 -1 0 1;
#X obj 351 466 *~;
#X floatatom 51 313 5 0 0 0 - - -;
#X obj 409 422 line~;
#X floatatom 253 95 0 0 0 0 - - -;
#X obj 203 33 notein;
#X floatatom 196 90 0 0 0 0 - - -;
#X floatatom 316 84 0 0 0 0 - - -;
#X floatatom 501 86 0 0 0 0 - - -;
#X floatatom 447 88 0 0 0 0 - - -;
#X floatatom 561 87 0 0 0 0 - - -;
#X obj 446 37 polytouchin;
#X obj 211 139 mtof;
#X obj 356 302 osc~;
#X obj 455 129 / 32;
#X floatatom 446 327 5 0 0 0 - - -;
#X obj 245 454 vu 15 120 empty empty -1 -8 0 10 -66577 -1 1 0;
#X obj 66 501 print;
#X obj 440 505 r volume-receiver;
#X floatatom 444 566 5 0 0 0 - - -;
#X floatatom 569 120 5 0 1000 0 - - -;
#X msg 649 114 50;
#X obj 64 454 r volume;
#X obj 541 328 *;
#X obj 356 245 +;
#X obj 493 382 pack 0 20;
#X obj 588 285 t bang float;
#X floatatom 729 83 5 0 0 0 - - -;
#X msg 728 178 set \$1;
#X obj 729 127 / 100;
#X obj 586 179 / 100;
#X obj 113 666 r libpd;
#X obj 122 727 print;
#X obj 222 663 r testr;
#X obj 362 185 r_float frequency;
#X obj 58 372 r_float volume2;
#X obj 664 629 r_float gakk;
#X obj 48 552 r_int vol;
#X obj 587 220 r_int volume 0.1 1.2 8.2;
#X obj 487 608 r_bool onoff2 1;
#X obj 333 586 r_bool onof 0;
#X connect 0 0 4 0;
#X connect 2 0 3 0;
#X connect 2 0 8 0;
#X connect 3 0 2 1;
#X connect 4 0 2 0;
#X connect 5 0 21 0;
#X connect 5 0 29 0;
#X connect 6 0 30 0;
#X connect 7 0 1 0;
#X connect 7 0 1 1;
#X connect 9 0 7 1;
#X connect 10 0 20 0;
#X connect 11 0 12 0;
#X connect 11 1 10 0;
#X connect 11 2 13 0;
#X connect 12 0 18 0;
#X connect 15 0 20 0;
#X connect 17 0 15 0;
#X connect 17 1 14 0;
#X connect 17 2 16 0;
#X connect 18 0 6 0;
#X connect 19 0 7 0;
#X connect 20 0 5 0;
#X connect 24 0 25 0;
#X connect 26 0 36 0;
#X connect 27 0 36 0;
#X connect 28 0 23 0;
#X connect 29 0 31 0;
#X connect 30 0 19 0;
#X connect 31 0 9 0;
#X connect 32 0 29 0;
#X connect 32 1 29 1;
#X connect 33 0 35 0;
#X connect 34 0 44 0;
#X connect 35 0 34 0;
#X connect 36 0 44 0;
#X connect 37 0 38 0;
#X connect 39 0 38 0;
#X connect 40 0 30 1;
#X connect 44 0 32 0;
