#N canvas 321 171 450 300 10;
#X obj 97 64 loadbang;
#X obj 201 12 osc~ 400;
#X obj 207 130 dac~;
#X obj 97 107 f 0;
#X obj 128 107 + 1;
#X obj 97 86 metro 1000;
#X obj 297 -19 vsl 15 128 0.01 4 1 0 empty empty empty 0 -9 0 10 -262144
-1 -1 4900 1;
#X obj 118 -36 hsl 128 15 100 1270 1 0 empty empty empty -2 -8 0 10
-262144 -1 -1 0 1;
#X obj 211 68 *~;
#X floatatom 97 145 5 0 0 0 - - -;
#X obj 300 135 pack 0 50;
#X obj 300 185 line~;
#X connect 0 0 5 0;
#X connect 1 0 8 0;
#X connect 3 0 4 0;
#X connect 3 0 9 0;
#X connect 4 0 3 1;
#X connect 5 0 3 0;
#X connect 6 0 10 0;
#X connect 7 0 1 0;
#X connect 8 0 2 1;
#X connect 8 0 2 0;
#X connect 10 0 11 0;
#X connect 11 0 8 1;
