#N canvas 789 239 438 466 10;
#X obj 153 70 adc~;
#X obj 140 217 *~;
#X obj 179 217 *~;
#X obj 85 374 dac~;
#X obj 225 153 osc~;
#X obj 225 128 +~ 1000;
#X obj 225 102 *~ 50;
#X obj 225 71 osc~ 1;
#X obj -107 103 delread~ blarg0 500;
#X obj 16 103 delread~ blarg1 500;
#X obj 85 346 +~;
#X obj 125 347 +~;
#X obj 16 124 *~ 0.35;
#X obj -107 125 *~ 0.35;
#X obj -93 255 delwrite~ blarg0 900;
#X obj 36 256 delwrite~ blarg1 1003;
#X obj 225 182 *~ 0.8;
#X connect 0 0 1 0;
#X connect 0 1 2 0;
#X connect 1 0 10 1;
#X connect 1 0 14 0;
#X connect 2 0 11 1;
#X connect 2 0 15 0;
#X connect 4 0 16 0;
#X connect 5 0 4 0;
#X connect 6 0 5 0;
#X connect 7 0 6 0;
#X connect 8 0 13 0;
#X connect 9 0 12 0;
#X connect 10 0 3 0;
#X connect 11 0 3 1;
#X connect 12 0 11 0;
#X connect 12 0 15 0;
#X connect 13 0 10 0;
#X connect 13 0 14 0;
#X connect 16 0 1 1;
#X connect 16 0 2 1;
